<?xml version="1.0"?>
<!--Icons from directory ""-->
<svg xmlns="http://www.w3.org/2000/svg" width="48" height="480" viewBox="0 0 48 480"><svg height="48" width="48" viewBox="0 0 24 24" fill="#808080" id="ic_arrow_back_black_48px" y="0"><path d="m0 0h24v24h-24z" fill="none"/><path d="m20 11h-12.17l5.59-5.59-1.42-1.41-8 8 8 8 1.41-1.41-5.58-5.59h12.17v-2z"/></svg><svg height="48" width="48" viewBox="0 0 24 24" fill="#000000" id="ic_clear_black_48px" y="48"><path d="m19 6.41l-1.41-1.41-5.59 5.59-5.59-5.59-1.41 1.41 5.59 5.59-5.59 5.59 1.41 1.41 5.59-5.59 5.59 5.59 1.41-1.41-5.59-5.59z"/><path d="m0 0h24v24h-24z" fill="none"/></svg><svg height="48" width="48" viewBox="0 0 24 24" fill="#d0021b" id="ic_create_black_48px" y="96"><path d="m3 17.25v3.75h3.75l11.06-11.06-3.75-3.75-11.06 11.06zm17.71-10.21c0.39-0.39 0.39-1.02 0-1.41l-2.34-2.34c-0.39-0.39-1.02-0.39-1.41 0l-1.83 1.83 3.75 3.75 1.83-1.83z"/><path d="m0 0h24v24h-24z" fill="none"/></svg><svg height="48" width="48" viewBox="0 0 24 24" fill="#808080" id="ic_delete_black_48px" y="144"><path d="m6 19c0 1.1 0.9 2 2 2h8c1.1 0 2-0.9 2-2v-12h-12v12zm13-15h-3.5l-1-1h-5l-1 1h-3.5v2h14v-2z"/><path d="m0 0h24v24h-24z" fill="none"/></svg><svg height="48" width="48" viewBox="0 0 24 24" fill="#808080" id="ic_expand_more_black_48px" y="192"><path d="m16.59 8.59l-4.59 4.58-4.59-4.58-1.41 1.41 6 6 6-6z"/><path d="m0 0h24v24h-24z" fill="none"/></svg><svg height="48" width="48" viewBox="0 0 24 24" id="ic_fiber_manual_record_black_48px" y="240"><path d="m24 24h-24v-24h24v24z" fill="none"/><circle cy="12" cx="12" r="8" fill="#d0021b"/></svg><svg height="48" width="48" viewBox="0 0 24 24" fill="#808080" id="ic_format_list_bulleted_black_48px" y="288"><path d="m4 10.5c-0.83 0-1.5 0.67-1.5 1.5s0.67 1.5 1.5 1.5 1.5-0.67 1.5-1.5-0.67-1.5-1.5-1.5zm0-6c-0.83 0-1.5 0.67-1.5 1.5s0.67 1.5 1.5 1.5 1.5-0.67 1.5-1.5-0.67-1.5-1.5-1.5zm0 12c-0.83 0-1.5 0.68-1.5 1.5s0.68 1.5 1.5 1.5 1.5-0.68 1.5-1.5-0.67-1.5-1.5-1.5zm3 2.5h14v-2h-14v2zm0-6h14v-2h-14v2zm0-8v2h14v-2h-14z"/><path d="m0 0h24v24h-24v-24z" fill="none"/></svg><svg height="48" width="48" viewBox="0 0 24 24" fill="#808080" id="ic_navigate_before_black_48px" y="336"><path d="m15.41 7.41l-1.41-1.41-6 6 6 6 1.41-1.41-4.58-4.59z"/><path d="m0 0h24v24h-24z" fill="none"/></svg><svg height="48" width="48" viewBox="0 0 24 24" fill="#808080" id="ic_navigate_next_black_48px" y="384"><path d="m10 6l-1.41 1.41 4.58 4.59-4.58 4.59 1.41 1.41 6-6z"/><path d="m0 0h24v24h-24z" fill="none"/></svg><svg height="48" width="48" viewBox="0 0 24 24" fill="#808080" id="ic_photo_camera_black_48px" y="432"><circle cy="12" cx="12" r="3.2"/><path d="m9 2l-1.83 2h-3.17c-1.1 0-2 0.9-2 2v12c0 1.1 0.9 2 2 2h16c1.1 0 2-0.9 2-2v-12c0-1.1-0.9-2-2-2h-3.17l-1.83-2h-6zm3 15c-2.76 0-5-2.24-5-5s2.24-5 5-5 5 2.24 5 5-2.24 5-5 5z"/><path d="m0 0h24v24h-24z" fill="none"/></svg></svg>
