<?xml version="1.0"?>
<!--Icons from directory ""-->
<svg xmlns="http://www.w3.org/2000/svg" width="24" height="48" viewBox="0 0 24 48"><svg height="24" width="24" viewBox="0 0 24 24" fill="#000000" id="ic_account_balance_black_24px" y="0"><path d="m0 0h24v24h-24z" fill="none"/><path d="m4 10v7h3v-7h-3zm6 0v7h3v-7h-3zm-8 12h19v-3h-19v3zm14-12v7h3v-7h-3zm-4.5-9l-9.5 5v2h19v-2l-9.5-5z"/></svg><svg height="24" width="24" viewBox="0 0 24 24" fill="#000000" id="ic_assignment_returned_black_24px" y="24"><path d="m0 0h24v24h-24z" fill="none"/><path d="m19 3h-4.18c-0.42-1.16-1.52-2-2.82-2s-2.4 0.84-2.82 2h-4.18c-1.1 0-2 0.9-2 2v14c0 1.1 0.9 2 2 2h14c1.1 0 2-0.9 2-2v-14c0-1.1-0.9-2-2-2zm-7 0c0.55 0 1 0.45 1 1s-0.45 1-1 1-1-0.45-1-1 0.45-1 1-1zm0 15l-5-5h3v-4h4v4h3l-5 5z"/></svg></svg>
